<?xml version="1.0" encoding="UTF-8"?>
<svg width="180px" height="41px" viewBox="0 0 180 41" version="1.1" xmlns="http://www.w3.org/2000/svg" xmlns:xlink="http://www.w3.org/1999/xlink">
    <!-- Generator: Sketch 50.2 (55047) - http://www.bohemiancoding.com/sketch -->
    <title>Group 3</title>
    <desc>Created with Sketch.</desc>
    <defs></defs>
    <g id="Page-1" stroke="none" stroke-width="1" fill="none" fill-rule="evenodd">
        <g id="Demo-app---Admin---Schedule" transform="translate(-237.000000, -18.000000)" fill="#FFFFFF">
            <g id="Group-3" transform="translate(237.000000, 18.000000)">
                <g id="ac-logo-4">
                    <g id="Group">
                        <path d="M122.115789,0.63052672 C121.642105,0.63052672 121.168421,0.997378631 121.073684,1.50180001 L118.421053,15.5338856 L125.242105,15.5338856 C125.715789,15.5338856 126.189474,15.1670337 126.284211,14.6626123 L128.936842,0.63052672 L122.115789,0.63052672 L122.115789,0.63052672 Z" id="Shape"></path>
                        <path d="M68.0684211,4.43661529 L57.3157895,4.43661529 C55.2789474,4.43661529 54.6157895,5.35374506 54.3789474,6.68358324 L53.1473684,13.2410611 C52.8631579,14.5708993 53.3368421,15.4880291 55.2789474,15.4880291 L65.9842105,15.4880291 C68.0684211,15.4880291 68.7315789,14.5708993 68.9684211,13.2410611 L70.2,6.68358324 C70.4842105,5.35374506 70.0105263,4.43661529 68.0684211,4.43661529 L68.0684211,4.43661529 Z M63,8.65541225 L62.4789474,11.3150886 C62.2894737,12.2780749 61.6736842,12.2780749 61.2473684,12.2780749 C60.8210526,12.2780749 60.2052632,12.2780749 60.3947368,11.3150886 L60.9157895,8.65541225 C61.1052632,7.69242599 61.5789474,7.69242599 62.1473684,7.69242599 C62.6210526,7.69242599 63.1894737,7.69242599 63,8.65541225 L63,8.65541225 Z" id="Shape"></path>
                        <path d="M93.2210526,0.63052672 C92.7473684,0.63052672 92.2736842,0.997378631 92.1789474,1.50180001 L91.4210526,5.44545804 C91.4210526,5.44545804 91.0894737,4.43661529 89.5263158,4.43661529 L84.8842105,4.43661529 C82.8,4.43661529 82.1842105,5.35374506 81.9,6.68358324 L80.6684211,13.2410611 C80.3842105,14.5708993 80.8578947,15.5338856 82.8,15.5338856 L87.4421053,15.5338856 C89.0052632,15.5338856 89.7157895,14.4333298 89.7157895,14.4333298 L89.5263158,15.5338856 L96.3,15.5338856 C96.7736842,15.5338856 97.2473684,15.1670337 97.3421053,14.6626123 L99.9947368,0.63052672 L93.2210526,0.63052672 L93.2210526,0.63052672 Z M90.9947368,8.65541225 L90.4736842,11.3150886 C90.2842105,12.2780749 89.6684211,12.2780749 89.2421053,12.2780749 C88.8157895,12.2780749 88.2,12.2780749 88.3894737,11.3150886 L88.9105263,8.65541225 C89.1,7.69242599 89.5736842,7.69242599 90.1421053,7.69242599 C90.6631579,7.69242599 91.1842105,7.69242599 90.9947368,8.65541225 L90.9947368,8.65541225 Z" id="Shape"></path>
                        <path d="M48.6473684,4.25318933 C44.9052632,4.25318933 43.4842105,5.49131453 43.4842105,5.49131453 L43.6736842,4.43661529 L37.4210526,4.43661529 C36.9473684,4.43661529 36.4736842,4.8034672 36.3789474,5.30788857 L34.3894737,15.5338856 L40.5947368,15.5338856 C41.0684211,15.5338856 41.5421053,15.1670337 41.6368421,14.6626123 L42.7736842,8.83883821 C42.7736842,8.83883821 43.0105263,7.69242599 44.1473684,7.69242599 C45.0947368,7.69242599 44.9526316,8.4719863 44.9526316,8.4719863 L43.5789474,15.5338856 L49.7842105,15.5338856 C50.2578947,15.5338856 50.7315789,15.1670337 50.8263158,14.6626123 L52.1526316,7.6465695 C52.6263158,5.49131453 51.0631579,4.25318933 48.6473684,4.25318933 L48.6473684,4.25318933 Z" id="Shape"></path>
                        <path d="M74.2736842,0.63052672 C73.8,0.63052672 73.3263158,0.997378631 73.2315789,1.50180001 L70.5789474,15.5338856 L77.4,15.5338856 C77.8736842,15.5338856 78.3473684,15.1670337 78.4421053,14.6626123 L81.0473684,0.63052672 L74.2736842,0.63052672 L74.2736842,0.63052672 Z" id="Shape"></path>
                        <path d="M140.4,4.43661529 L140.4,4.43661529 C139.926316,4.43661529 139.452632,4.8034672 139.357895,5.30788857 L139.310526,5.44545804 C139.310526,5.44545804 138.978947,4.43661529 137.415789,4.43661529 L132.726316,4.43661529 C130.642105,4.43661529 130.026316,5.35374506 129.742105,6.68358324 L128.510526,13.2410611 C128.226316,14.5708993 128.7,15.5338856 130.642105,15.5338856 L135.284211,15.5338856 C136.847368,15.5338856 137.557895,14.4333298 137.557895,14.4333298 L137.368421,15.5338856 L144.142105,15.5338856 C144.615789,15.5338856 145.089474,15.1670337 145.184211,14.6626123 L147.126316,4.43661529 L140.4,4.43661529 L140.4,4.43661529 Z M138.884211,8.65541225 L138.363158,11.3150886 C138.173684,12.2780749 137.557895,12.2780749 137.131579,12.2780749 C136.705263,12.2780749 136.089474,12.2780749 136.278947,11.3150886 L136.8,8.65541225 C136.989474,7.69242599 137.463158,7.69242599 138.031579,7.69242599 C138.552632,7.69242599 139.073684,7.69242599 138.884211,8.65541225 L138.884211,8.65541225 Z" id="Shape"></path>
                        <path d="M180,4.43661529 L172.278947,4.43661529 C171.947368,4.43661529 171.663158,4.57418475 171.473684,4.84932369 L168.915789,7.92170843 L170.289474,0.63052672 L163.515789,0.63052672 C163.042105,0.63052672 162.568421,0.997378631 162.473684,1.50180001 L159.773684,15.5338856 L166.594737,15.5338856 C167.068421,15.5338856 167.542105,15.1670337 167.636842,14.6626123 L168.252632,11.4068016 L169.673684,15.5338856 L178.294737,15.5338856 L175.026316,9.57254203 L180,4.43661529 L180,4.43661529 Z" id="Shape"></path>
                        <path d="M31.2631579,5.99573591 L31.5473684,4.43661529 L24.7736842,4.43661529 C24.3,4.43661529 23.8263158,4.8034672 23.7315789,5.30788857 L21.7894737,15.5338856 L28.5631579,15.5338856 C29.0368421,15.5338856 29.5105263,15.1670337 29.6052632,14.6626123 L30.2210526,11.2692321 C30.4105263,10.1686764 31.5,9.25154661 32.6368421,9.25154661 C33.1105263,9.25154661 33.4894737,9.38911607 33.7736842,9.61839852 L34.7684211,4.34490231 C32.1631579,4.75761071 31.2631579,5.99573591 31.2631579,5.99573591 L31.2631579,5.99573591 Z" id="Shape"></path>
                        <path d="M156.552632,5.99573591 L156.836842,4.43661529 L150.015789,4.43661529 C149.542105,4.43661529 149.068421,4.8034672 148.973684,5.30788857 L147.031579,15.5338856 L153.805263,15.5338856 C154.278947,15.5338856 154.752632,15.1670337 154.847368,14.6626123 L155.463158,11.2692321 C155.652632,10.1686764 156.742105,9.25154661 157.878947,9.25154661 C158.352632,9.25154661 158.731579,9.38911607 159.015789,9.61839852 L160.105263,4.43661529 C157.452632,4.75761071 156.552632,5.99573591 156.552632,5.99573591 L156.552632,5.99573591 Z" id="Shape"></path>
                        <path d="M108.189474,0.63052672 L108.189474,0.63052672 C106.910526,0.63052672 105.678947,1.63936947 105.489474,2.87749467 L103.5,13.2869176 C103.263158,14.5250428 104.163158,15.5338856 105.442105,15.5338856 L105.442105,15.5338856 L115.721053,15.5338856 L115.721053,15.5338856 C116.147368,15.5338856 116.478947,15.2587466 116.573684,14.8460382 C116.573684,14.8460382 116.573684,14.8460382 116.573684,14.8001817 L117.142105,11.81951 L112.357895,11.81951 C111.884211,11.81951 111.552632,11.4526581 111.6,10.9482367 L112.689474,5.12446262 C112.784211,4.66589773 113.257895,4.25318933 113.731579,4.25318933 L117.710526,4.25318933 C118.184211,4.25318933 118.657895,3.88633742 118.752632,3.38191605 L119.273684,0.538813743 L108.189474,0.63052672 L108.189474,0.63052672 Z" id="Shape"></path>
                        <path d="M10.2315789,0.63052672 C8.43157895,0.63052672 6.72631579,1.77693894 5.92105263,3.33605956 L0,15.5338856 L7.01052632,15.5338856 C7.57894737,15.5338856 8.1,15.1670337 8.33684211,14.6626123 L9.09473684,13.0117787 L12.2684211,13.0117787 L11.7,15.5338856 L18.9,15.5338856 C19.3736842,15.5338856 19.8473684,15.1670337 19.9421053,14.6626123 L22.5947368,0.63052672 L10.2315789,0.63052672 L10.2315789,0.63052672 Z M13.1210526,9.34325959 L10.7526316,9.34325959 C10.7526316,9.34325959 12.0315789,6.4084443 12.6,5.26203209 C12.8368421,4.75761071 13.4052632,4.3907588 13.9736842,4.3907588 L14.3052632,4.3907588 L13.1210526,9.34325959 L13.1210526,9.34325959 Z" id="Shape"></path>
                    </g>
                </g>
                <text id="Department-Demos" font-family="Gotham-Book, Gotham" font-size="16.1999991" font-weight="300">
                    <tspan x="0" y="37.7058824">Department Demos</tspan>
                </text>
            </g>
        </g>
    </g>
</svg>