<?xml version="1.0" encoding="UTF-8"?>
<svg width="180px" height="42px" viewBox="0 0 180 42" version="1.1" xmlns="http://www.w3.org/2000/svg" xmlns:xlink="http://www.w3.org/1999/xlink">
    <title>demo-logo</title>
    <defs>
        <path d="M5.616,15 C9.136,15 11.568,12.552 11.568,9.4 L11.568,9.368 C11.568,6.216 9.136,3.8 5.616,3.8 L1.44,3.8 L1.44,15 L5.616,15 Z M5.616,13.208 L3.408,13.208 L3.408,5.592 L5.616,5.592 C7.968,5.592 9.504,7.208 9.504,9.4 L9.504,9.432 C9.504,11.624 7.968,13.208 5.616,13.208 Z M17.6,15.192 C19.152,15.192 20.256,14.568 21.056,13.608 L19.92,12.6 C19.248,13.256 18.576,13.608 17.632,13.608 C16.384,13.608 15.408,12.84 15.2,11.464 L21.408,11.464 C21.424,11.272 21.44,11.096 21.44,10.92 C21.44,8.488 20.08,6.376 17.392,6.376 C14.976,6.376 13.264,8.36 13.264,10.776 L13.264,10.808 C13.264,13.416 15.152,15.192 17.6,15.192 Z M19.52,10.184 L15.184,10.184 C15.36,8.872 16.192,7.96 17.376,7.96 C18.656,7.96 19.392,8.936 19.52,10.184 Z M25.328,17.56 L25.328,13.688 C25.92,14.472 26.8,15.176 28.208,15.176 C30.208,15.176 32.128,13.592 32.128,10.792 L32.128,10.76 C32.128,7.944 30.192,6.376 28.208,6.376 C26.832,6.376 25.952,7.08 25.328,7.96 L25.328,6.552 L23.376,6.552 L23.376,17.56 L25.328,17.56 Z M27.744,13.496 C26.432,13.496 25.28,12.408 25.28,10.792 L25.28,10.76 C25.28,9.144 26.432,8.056 27.744,8.056 C29.04,8.056 30.16,9.128 30.16,10.76 L30.16,10.792 C30.16,12.456 29.072,13.496 27.744,13.496 Z M36.56,15.176 C37.856,15.176 38.736,14.632 39.312,13.944 L39.312,15 L41.2,15 L41.2,9.992 C41.2,8.888 40.912,7.992 40.288,7.384 C39.696,6.776 38.752,6.44 37.488,6.44 C36.144,6.44 35.232,6.712 34.288,7.128 L34.816,8.648 C35.584,8.328 36.288,8.12 37.232,8.12 C38.592,8.12 39.328,8.76 39.328,9.96 L39.328,10.168 C38.672,9.96 38,9.816 37.056,9.816 C34.992,9.816 33.552,10.712 33.552,12.536 L33.552,12.568 C33.552,14.264 34.976,15.176 36.56,15.176 Z M37.104,13.768 C36.176,13.768 35.456,13.304 35.456,12.488 L35.456,12.456 C35.456,11.576 36.192,11.048 37.44,11.048 C38.208,11.048 38.864,11.192 39.36,11.384 L39.36,11.96 C39.36,13.032 38.384,13.768 37.104,13.768 Z M45.456,15 L45.456,11.784 C45.456,9.544 46.64,8.44 48.336,8.44 L48.448,8.44 L48.448,6.392 C46.96,6.328 45.984,7.192 45.456,8.456 L45.456,6.552 L43.504,6.552 L43.504,15 L45.456,15 Z M52.96,15.144 C53.696,15.144 54.224,14.984 54.704,14.712 L54.704,13.128 C54.32,13.32 53.936,13.416 53.504,13.416 C52.848,13.416 52.464,13.112 52.464,12.36 L52.464,8.216 L54.736,8.216 L54.736,6.552 L52.464,6.552 L52.464,4.232 L50.528,4.232 L50.528,6.552 L49.456,6.552 L49.456,8.216 L50.528,8.216 L50.528,12.664 C50.528,14.52 51.536,15.144 52.96,15.144 Z M58.64,15 L58.64,10.232 C58.64,8.936 59.376,8.136 60.448,8.136 C61.52,8.136 62.16,8.872 62.16,10.184 L62.16,15 L64.096,15 L64.096,10.232 C64.096,8.872 64.848,8.136 65.904,8.136 C66.992,8.136 67.616,8.856 67.616,10.2 L67.616,15 L69.552,15 L69.552,9.608 C69.552,7.544 68.432,6.376 66.592,6.376 C65.312,6.376 64.416,6.968 63.744,7.864 C63.296,6.968 62.432,6.376 61.216,6.376 C59.92,6.376 59.184,7.08 58.64,7.832 L58.64,6.552 L56.688,6.552 L56.688,15 L58.64,15 Z M75.76,15.192 C77.312,15.192 78.416,14.568 79.216,13.608 L78.08,12.6 C77.408,13.256 76.736,13.608 75.792,13.608 C74.544,13.608 73.568,12.84 73.36,11.464 L79.568,11.464 C79.584,11.272 79.6,11.096 79.6,10.92 C79.6,8.488 78.24,6.376 75.552,6.376 C73.136,6.376 71.424,8.36 71.424,10.776 L71.424,10.808 C71.424,13.416 73.312,15.192 75.76,15.192 Z M77.68,10.184 L73.344,10.184 C73.52,8.872 74.352,7.96 75.536,7.96 C76.816,7.96 77.552,8.936 77.68,10.184 Z M83.488,15 L83.488,10.232 C83.488,8.92 84.272,8.136 85.392,8.136 C86.544,8.136 87.2,8.888 87.2,10.2 L87.2,15 L89.136,15 L89.136,9.608 C89.136,7.656 88.032,6.376 86.128,6.376 C84.816,6.376 84.032,7.064 83.488,7.848 L83.488,6.552 L81.536,6.552 L81.536,15 L83.488,15 Z M94.304,15.144 C95.04,15.144 95.568,14.984 96.048,14.712 L96.048,13.128 C95.664,13.32 95.28,13.416 94.848,13.416 C94.192,13.416 93.808,13.112 93.808,12.36 L93.808,8.216 L96.08,8.216 L96.08,6.552 L93.808,6.552 L93.808,4.232 L91.872,4.232 L91.872,6.552 L90.8,6.552 L90.8,8.216 L91.872,8.216 L91.872,12.664 C91.872,14.52 92.88,15.144 94.304,15.144 Z M107.248,15 C110.768,15 113.2,12.552 113.2,9.4 L113.2,9.368 C113.2,6.216 110.768,3.8 107.248,3.8 L103.072,3.8 L103.072,15 L107.248,15 Z M107.248,13.208 L105.04,13.208 L105.04,5.592 L107.248,5.592 C109.6,5.592 111.136,7.208 111.136,9.4 L111.136,9.432 C111.136,11.624 109.6,13.208 107.248,13.208 Z M119.232,15.192 C120.784,15.192 121.888,14.568 122.688,13.608 L121.552,12.6 C120.88,13.256 120.208,13.608 119.264,13.608 C118.016,13.608 117.04,12.84 116.832,11.464 L123.04,11.464 C123.056,11.272 123.072,11.096 123.072,10.92 C123.072,8.488 121.712,6.376 119.024,6.376 C116.608,6.376 114.896,8.36 114.896,10.776 L114.896,10.808 C114.896,13.416 116.784,15.192 119.232,15.192 Z M121.152,10.184 L116.816,10.184 C116.992,8.872 117.824,7.96 119.008,7.96 C120.288,7.96 121.024,8.936 121.152,10.184 Z M126.96,15 L126.96,10.232 C126.96,8.936 127.696,8.136 128.768,8.136 C129.84,8.136 130.48,8.872 130.48,10.184 L130.48,15 L132.416,15 L132.416,10.232 C132.416,8.872 133.168,8.136 134.224,8.136 C135.312,8.136 135.936,8.856 135.936,10.2 L135.936,15 L137.872,15 L137.872,9.608 C137.872,7.544 136.752,6.376 134.912,6.376 C133.632,6.376 132.736,6.968 132.064,7.864 C131.616,6.968 130.752,6.376 129.536,6.376 C128.24,6.376 127.504,7.08 126.96,7.832 L126.96,6.552 L125.008,6.552 L125.008,15 L126.96,15 Z M144.224,15.192 C146.832,15.192 148.752,13.192 148.752,10.792 L148.752,10.76 C148.752,8.344 146.848,6.376 144.256,6.376 C141.664,6.376 139.744,8.376 139.744,10.792 L139.744,10.824 C139.744,13.224 141.648,15.192 144.224,15.192 Z M144.256,13.496 C142.752,13.496 141.68,12.264 141.68,10.792 L141.68,10.76 C141.68,9.288 142.672,8.072 144.224,8.072 C145.744,8.072 146.816,9.304 146.816,10.792 L146.816,10.824 C146.816,12.28 145.824,13.496 144.256,13.496 Z M153.616,15.16 C155.376,15.16 156.752,14.28 156.752,12.504 L156.752,12.472 C156.752,10.952 155.36,10.392 154.128,10.008 C153.136,9.688 152.224,9.432 152.224,8.808 L152.224,8.776 C152.224,8.312 152.656,7.944 153.408,7.944 C154.112,7.944 154.976,8.248 155.792,8.744 L156.56,7.368 C155.664,6.776 154.512,6.408 153.456,6.408 C151.776,6.408 150.448,7.384 150.448,9 L150.448,9.032 C150.448,10.632 151.84,11.144 153.088,11.496 C154.08,11.8 154.976,12.024 154.976,12.68 L154.976,12.712 C154.976,13.272 154.496,13.624 153.664,13.624 C152.8,13.624 151.824,13.272 150.896,12.584 L150.032,13.896 C151.088,14.744 152.416,15.16 153.616,15.16 Z" id="path-1"></path>
    </defs>
    <g id="Page-1" stroke="none" stroke-width="1" fill="none" fill-rule="evenodd">
        <g id="demo-logo" transform="translate(0.000000, 0.538814)" fill-rule="nonzero">
            <g id="ac-logo-4" transform="translate(0.000000, 0.000000)" fill="#FFFFFF">
                <g id="Group" transform="translate(0.000000, -0.000000)">
                    <path d="M122.115789,0.091712977 C121.642105,0.091712977 121.168421,0.458564888 121.073684,0.962986267 L118.421053,14.9950719 L125.242105,14.9950719 C125.715789,14.9950719 126.189474,14.62822 126.284211,14.1237986 L128.936842,0.091712977 L122.115789,0.091712977 L122.115789,0.091712977 Z" id="Shape"></path>
                    <path d="M68.0684211,3.89780155 L57.3157895,3.89780155 C55.2789474,3.89780155 54.6157895,4.81493132 54.3789474,6.1447695 L53.1473684,12.7022474 C52.8631579,14.0320856 53.3368421,14.9492154 55.2789474,14.9492154 L65.9842105,14.9492154 C68.0684211,14.9492154 68.7315789,14.0320856 68.9684211,12.7022474 L70.2,6.1447695 C70.4842105,4.81493132 70.0105263,3.89780155 68.0684211,3.89780155 L68.0684211,3.89780155 Z M63,8.11659851 L62.4789474,10.7762749 C62.2894737,11.7392612 61.6736842,11.7392612 61.2473684,11.7392612 C60.8210526,11.7392612 60.2052632,11.7392612 60.3947368,10.7762749 L60.9157895,8.11659851 C61.1052632,7.15361225 61.5789474,7.15361225 62.1473684,7.15361225 C62.6210526,7.15361225 63.1894737,7.15361225 63,8.11659851 L63,8.11659851 Z" id="Shape"></path>
                    <path d="M93.2210526,0.091712977 C92.7473684,0.091712977 92.2736842,0.458564888 92.1789474,0.962986267 L91.4210526,4.9066443 C91.4210526,4.9066443 91.0894737,3.89780155 89.5263158,3.89780155 L84.8842105,3.89780155 C82.8,3.89780155 82.1842105,4.81493132 81.9,6.1447695 L80.6684211,12.7022474 C80.3842105,14.0320856 80.8578947,14.9950719 82.8,14.9950719 L87.4421053,14.9950719 C89.0052632,14.9950719 89.7157895,13.8945161 89.7157895,13.8945161 L89.5263158,14.9950719 L96.3,14.9950719 C96.7736842,14.9950719 97.2473684,14.62822 97.3421053,14.1237986 L99.9947368,0.091712977 L93.2210526,0.091712977 L93.2210526,0.091712977 Z M90.9947368,8.11659851 L90.4736842,10.7762749 C90.2842105,11.7392612 89.6684211,11.7392612 89.2421053,11.7392612 C88.8157895,11.7392612 88.2,11.7392612 88.3894737,10.7762749 L88.9105263,8.11659851 C89.1,7.15361225 89.5736842,7.15361225 90.1421053,7.15361225 C90.6631579,7.15361225 91.1842105,7.15361225 90.9947368,8.11659851 L90.9947368,8.11659851 Z" id="Shape"></path>
                    <path d="M48.6473684,3.71437559 C44.9052632,3.71437559 43.4842105,4.95250079 43.4842105,4.95250079 L43.6736842,3.89780155 L37.4210526,3.89780155 C36.9473684,3.89780155 36.4736842,4.26465346 36.3789474,4.76907483 L34.3894737,14.9950719 L40.5947368,14.9950719 C41.0684211,14.9950719 41.5421053,14.62822 41.6368421,14.1237986 L42.7736842,8.30002447 C42.7736842,8.30002447 43.0105263,7.15361225 44.1473684,7.15361225 C45.0947368,7.15361225 44.9526316,7.93317256 44.9526316,7.93317256 L43.5789474,14.9950719 L49.7842105,14.9950719 C50.2578947,14.9950719 50.7315789,14.62822 50.8263158,14.1237986 L52.1526316,7.10775576 C52.6263158,4.95250079 51.0631579,3.71437559 48.6473684,3.71437559 L48.6473684,3.71437559 Z" id="Shape"></path>
                    <path d="M74.2736842,0.091712977 C73.8,0.091712977 73.3263158,0.458564888 73.2315789,0.962986267 L70.5789474,14.9950719 L77.4,14.9950719 C77.8736842,14.9950719 78.3473684,14.62822 78.4421053,14.1237986 L81.0473684,0.091712977 L74.2736842,0.091712977 L74.2736842,0.091712977 Z" id="Shape"></path>
                    <path d="M140.4,3.89780155 L140.4,3.89780155 C139.926316,3.89780155 139.452632,4.26465346 139.357895,4.76907483 L139.310526,4.9066443 C139.310526,4.9066443 138.978947,3.89780155 137.415789,3.89780155 L132.726316,3.89780155 C130.642105,3.89780155 130.026316,4.81493132 129.742105,6.1447695 L128.510526,12.7022474 C128.226316,14.0320856 128.7,14.9950719 130.642105,14.9950719 L135.284211,14.9950719 C136.847368,14.9950719 137.557895,13.8945161 137.557895,13.8945161 L137.368421,14.9950719 L144.142105,14.9950719 C144.615789,14.9950719 145.089474,14.62822 145.184211,14.1237986 L147.126316,3.89780155 L140.4,3.89780155 L140.4,3.89780155 Z M138.884211,8.11659851 L138.363158,10.7762749 C138.173684,11.7392612 137.557895,11.7392612 137.131579,11.7392612 C136.705263,11.7392612 136.089474,11.7392612 136.278947,10.7762749 L136.8,8.11659851 C136.989474,7.15361225 137.463158,7.15361225 138.031579,7.15361225 C138.552632,7.15361225 139.073684,7.15361225 138.884211,8.11659851 L138.884211,8.11659851 Z" id="Shape"></path>
                    <path d="M180,3.89780155 L172.278947,3.89780155 C171.947368,3.89780155 171.663158,4.03537101 171.473684,4.31050995 L168.915789,7.38289469 L170.289474,0.091712977 L163.515789,0.091712977 C163.042105,0.091712977 162.568421,0.458564888 162.473684,0.962986267 L159.773684,14.9950719 L166.594737,14.9950719 C167.068421,14.9950719 167.542105,14.62822 167.636842,14.1237986 L168.252632,10.8679879 L169.673684,14.9950719 L178.294737,14.9950719 L175.026316,9.03372829 L180,3.89780155 L180,3.89780155 Z" id="Shape"></path>
                    <path d="M31.2631579,5.45692217 L31.5473684,3.89780155 L24.7736842,3.89780155 C24.3,3.89780155 23.8263158,4.26465346 23.7315789,4.76907483 L21.7894737,14.9950719 L28.5631579,14.9950719 C29.0368421,14.9950719 29.5105263,14.62822 29.6052632,14.1237986 L30.2210526,10.7304184 C30.4105263,9.62986266 31.5,8.71273287 32.6368421,8.71273287 C33.1105263,8.71273287 33.4894737,8.85030233 33.7736842,9.07958478 L34.7684211,3.80608857 C32.1631579,4.21879697 31.2631579,5.45692217 31.2631579,5.45692217 L31.2631579,5.45692217 Z" id="Shape"></path>
                    <path d="M156.552632,5.45692217 L156.836842,3.89780155 L150.015789,3.89780155 C149.542105,3.89780155 149.068421,4.26465346 148.973684,4.76907483 L147.031579,14.9950719 L153.805263,14.9950719 C154.278947,14.9950719 154.752632,14.62822 154.847368,14.1237986 L155.463158,10.7304184 C155.652632,9.62986266 156.742105,8.71273287 157.878947,8.71273287 C158.352632,8.71273287 158.731579,8.85030233 159.015789,9.07958478 L160.105263,3.89780155 C157.452632,4.21879697 156.552632,5.45692217 156.552632,5.45692217 L156.552632,5.45692217 Z" id="Shape"></path>
                    <path d="M108.189474,0.091712977 L108.189474,0.091712977 C106.910526,0.091712977 105.678947,1.10055573 105.489474,2.33868093 L103.5,12.7481039 C103.263158,13.9862291 104.163158,14.9950719 105.442105,14.9950719 L105.442105,14.9950719 L115.721053,14.9950719 L115.721053,14.9950719 C116.147368,14.9950719 116.478947,14.7199329 116.573684,14.3072245 C116.573684,14.3072245 116.573684,14.3072245 116.573684,14.261368 L117.142105,11.2806963 L112.357895,11.2806963 C111.884211,11.2806963 111.552632,10.9138444 111.6,10.409423 L112.689474,4.58564888 C112.784211,4.12708399 113.257895,3.71437559 113.731579,3.71437559 L117.710526,3.71437559 C118.184211,3.71437559 118.657895,3.34752368 118.752632,2.84310231 L119.273684,-4.4408921e-16 L108.189474,0.091712977 L108.189474,0.091712977 Z" id="Shape"></path>
                    <path d="M10.2315789,0.091712977 C8.43157895,0.091712977 6.72631579,1.2381252 5.92105263,2.79724582 L0,14.9950719 L7.01052632,14.9950719 C7.57894737,14.9950719 8.1,14.62822 8.33684211,14.1237986 L9.09473684,12.472965 L12.2684211,12.472965 L11.7,14.9950719 L18.9,14.9950719 C19.3736842,14.9950719 19.8473684,14.62822 19.9421053,14.1237986 L22.5947368,0.091712977 L10.2315789,0.091712977 L10.2315789,0.091712977 Z M13.1210526,8.80444585 L10.7526316,8.80444585 C10.7526316,8.80444585 12.0315789,5.86963056 12.6,4.72321835 C12.8368421,4.21879697 13.4052632,3.85194506 13.9736842,3.85194506 L14.3052632,3.85194506 L13.1210526,8.80444585 L13.1210526,8.80444585 Z" id="Shape"></path>
                </g>
            </g>
            <g id="DepartmentDemos" transform="translate(0.000000, 22.167069)">
                <use fill="#000000" xlink:href="#path-1"></use>
                <use fill="#FFFFFF" xlink:href="#path-1"></use>
            </g>
        </g>
    </g>
</svg>